<?xml version="1.0" encoding="utf-8"?>
<!-- Generator: Adobe Illustrator 16.0.0, SVG Export Plug-In . SVG Version: 6.00 Build 0)  -->
<!DOCTYPE svg PUBLIC "-//W3C//DTD SVG 1.1//EN" "http://www.w3.org/Graphics/SVG/1.1/DTD/svg11.dtd">
<svg version="1.1" id="Layer_1" xmlns="http://www.w3.org/2000/svg" xmlns:xlink="http://www.w3.org/1999/xlink" x="0px" y="0px"
	 width="40px" height="40px" viewBox="0 0 40 40" enable-background="new 0 0 40 40" xml:space="preserve">
<path fill="#FEFFFD" d="M20,0C8.954,0,0,8.954,0,20c0,11.044,8.954,20,20,20c11.044,0,20-8.955,20-20C40,8.954,31.044,0,20,0z
	 M25.819,27.78c-0.244,0.271-1.338,0.201-2.055,0.201c-4.586,0-8.876,0-13.487,0c-0.727,0-1.76,0.101-2.054-0.161
	c-0.295-0.265-0.201-0.97-0.201-1.488c0-0.581-0.085-1.306,0.081-1.612c0.179-0.334,1.348-0.678,1.772-0.845
	c0.66-0.262,1.243-0.508,1.812-0.767c1.233-0.559,2.448-1.088,3.141-2.013c-0.041-0.139,0.036-0.668,0-0.807
	c-0.041-0.155-0.236-0.379-0.403-0.604c-0.145-0.192-0.3-0.381-0.402-0.564c-0.226-0.404-0.352-0.893-0.524-1.248
	c-0.239-0.494-0.702-0.662-0.644-1.49c0.027-0.391,0.269-0.615,0.322-0.885c0.14-0.717-0.051-1.615,0-2.336
	c0.135-1.877,1.441-3.005,3.302-3.143c2.537-0.186,4.138,0.924,4.348,2.939c0.058,0.555,0.007,1.312,0,1.893
	c0,0.188-0.03,0.439,0,0.604c0.071,0.365,0.372,0.57,0.365,1.088c-0.007,0.265-0.141,0.653-0.282,0.846
	c-0.128,0.174-0.307,0.239-0.404,0.443c-0.087,0.188-0.142,0.453-0.241,0.685c-0.096,0.223-0.177,0.448-0.283,0.644
	c-0.36,0.657-1.016,0.907-0.765,1.934c0.113,0.448,0.941,0.905,1.41,1.168c1.216,0.684,2.147,1.042,3.542,1.611
	c0.603,0.244,1.57,0.539,1.734,0.847c0.157,0.297,0.079,0.99,0.079,1.568C25.98,26.929,26.02,27.561,25.819,27.78z M32.922,19.078
	l-2.828-0.016l-0.031,2.453l-3.25-0.016l0.016-2.422l-2.906,0.016v-3.046l2.859,0l0.016-2.719l3.312,0.016l-0.001,2.734l2.813-0.016
	V19.078z"/>
</svg>
