<?xml version="1.0" encoding="utf-8"?>
<!-- Generator: Adobe Illustrator 16.0.0, SVG Export Plug-In . SVG Version: 6.00 Build 0)  -->
<!DOCTYPE svg PUBLIC "-//W3C//DTD SVG 1.1//EN" "http://www.w3.org/Graphics/SVG/1.1/DTD/svg11.dtd">
<svg version="1.1" id="Layer_1" xmlns="http://www.w3.org/2000/svg" xmlns:xlink="http://www.w3.org/1999/xlink" x="0px" y="0px"
	 width="40px" height="40px" viewBox="0 0 40 40" enable-background="new 0 0 40 40" xml:space="preserve">
<path fill="#FFFFFF" d="M20,0C8.954,0,0,8.954,0,20c0,11.044,8.954,20,20,20c11.044,0,20-8.955,20-20C40,8.954,31.044,0,20,0z
	 M14.286,27.167l-0.09-5.2H7.188v-4.672l6.989-0.018l0.018-5.508l7.443,8.057L14.286,27.167z M28.621,33.788l-10.037,0.048
	l0.041-4.461l5.542,0.039l0.042-18.912l-5.75-0.002l0.059-4.035l10.233,0.079L28.621,33.788z"/>
</svg>
